<mxfile host="app.diagrams.net" modified="2023-10-30T12:21:29.039Z" agent="Mozilla/5.0 (Windows NT 10.0; Win64; x64) AppleWebKit/537.36 (KHTML, like Gecko) Chrome/118.0.0.0 Safari/537.36" etag="_xqb4OYWARXY5LmnLj7u" version="22.0.8" type="github">
  <diagram name="第 1 页" id="f_zrGDyMwNxZixWdkjU8">
    <mxGraphModel dx="466" dy="748" grid="1" gridSize="10" guides="1" tooltips="1" connect="1" arrows="1" fold="1" page="1" pageScale="1" pageWidth="827" pageHeight="1169" math="0" shadow="0">
      <root>
        <mxCell id="0" />
        <mxCell id="1" parent="0" />
        <mxCell id="VMhlThUT5ohOYJfdrlwV-3" value="" style="edgeStyle=orthogonalEdgeStyle;rounded=0;orthogonalLoop=1;jettySize=auto;html=1;" edge="1" parent="1" source="VMhlThUT5ohOYJfdrlwV-1" target="VMhlThUT5ohOYJfdrlwV-2">
          <mxGeometry relative="1" as="geometry" />
        </mxCell>
        <mxCell id="VMhlThUT5ohOYJfdrlwV-1" value="获取内核元数据和程序数据（没有的话新建一个）" style="rounded=1;whiteSpace=wrap;html=1;" vertex="1" parent="1">
          <mxGeometry x="100" y="40" width="120" height="60" as="geometry" />
        </mxCell>
        <mxCell id="VMhlThUT5ohOYJfdrlwV-5" value="" style="edgeStyle=orthogonalEdgeStyle;rounded=0;orthogonalLoop=1;jettySize=auto;html=1;" edge="1" parent="1" source="VMhlThUT5ohOYJfdrlwV-2" target="VMhlThUT5ohOYJfdrlwV-4">
          <mxGeometry relative="1" as="geometry" />
        </mxCell>
        <mxCell id="VMhlThUT5ohOYJfdrlwV-2" value="根据偏移量（在clBuildKernel中用到的）获取CUDA内核函数" style="whiteSpace=wrap;html=1;rounded=1;" vertex="1" parent="1">
          <mxGeometry x="50" y="140" width="220" height="90" as="geometry" />
        </mxCell>
        <mxCell id="VMhlThUT5ohOYJfdrlwV-7" value="" style="edgeStyle=orthogonalEdgeStyle;rounded=0;orthogonalLoop=1;jettySize=auto;html=1;" edge="1" parent="1" source="VMhlThUT5ohOYJfdrlwV-4" target="VMhlThUT5ohOYJfdrlwV-6">
          <mxGeometry relative="1" as="geometry" />
        </mxCell>
        <mxCell id="VMhlThUT5ohOYJfdrlwV-4" value="获取内存对齐信息" style="whiteSpace=wrap;html=1;rounded=1;" vertex="1" parent="1">
          <mxGeometry x="100" y="270" width="120" height="60" as="geometry" />
        </mxCell>
        <mxCell id="VMhlThUT5ohOYJfdrlwV-6" value="增加内核的引用计数" style="whiteSpace=wrap;html=1;rounded=1;" vertex="1" parent="1">
          <mxGeometry x="100" y="360" width="120" height="60" as="geometry" />
        </mxCell>
      </root>
    </mxGraphModel>
  </diagram>
</mxfile>
